<mxfile host="app.diagrams.net" modified="2023-01-24T04:01:13.087Z" agent="5.0 (Windows NT 10.0; Win64; x64) AppleWebKit/537.36 (KHTML, like Gecko) Chrome/109.0.0.0 Safari/537.36" etag="RUUfELwCMH69yBZWeIvK" version="20.3.2" type="github">
  <diagram id="6a731a19-8d31-9384-78a2-239565b7b9f0" name="Page-1">
    <mxGraphModel dx="920" dy="833" grid="1" gridSize="10" guides="1" tooltips="1" connect="1" arrows="1" fold="1" page="1" pageScale="1" pageWidth="1169" pageHeight="827" background="none" math="0" shadow="0">
      <root>
        <mxCell id="0" />
        <mxCell id="1" parent="0" />
        <mxCell id="2" value="start" style="shape=mxgraph.flowchart.terminator;strokeWidth=2;gradientColor=none;gradientDirection=north;fontStyle=0;html=1;" parent="1" vertex="1">
          <mxGeometry x="270" y="60" width="100" height="30" as="geometry" />
        </mxCell>
        <mxCell id="3" value="Login" style="shape=mxgraph.flowchart.data;strokeWidth=2;gradientColor=none;gradientDirection=north;fontStyle=0;html=1;" parent="1" vertex="1">
          <mxGeometry x="240.5" y="130" width="159" height="50" as="geometry" />
        </mxCell>
        <mxCell id="7" style="fontStyle=1;strokeColor=#003366;strokeWidth=1;html=1;" parent="1" source="2" target="3" edge="1">
          <mxGeometry relative="1" as="geometry" />
        </mxCell>
        <mxCell id="8" style="fontStyle=1;strokeColor=#003366;strokeWidth=1;html=1;" parent="1" source="3" edge="1">
          <mxGeometry relative="1" as="geometry">
            <mxPoint x="320.0000000000002" y="250" as="targetPoint" />
          </mxGeometry>
        </mxCell>
        <mxCell id="Yzk0LGv0qohbh3Vv0f0L-55" value="Validasi Login" style="strokeWidth=2;html=1;shape=mxgraph.flowchart.decision;whiteSpace=wrap;" vertex="1" parent="1">
          <mxGeometry x="270" y="210" width="100" height="100" as="geometry" />
        </mxCell>
        <mxCell id="Yzk0LGv0qohbh3Vv0f0L-64" style="fontStyle=1;strokeColor=#003366;strokeWidth=1;html=1;exitX=0;exitY=0.5;exitDx=0;exitDy=0;exitPerimeter=0;" edge="1" parent="1" source="Yzk0LGv0qohbh3Vv0f0L-55">
          <mxGeometry relative="1" as="geometry">
            <mxPoint x="330" y="220" as="sourcePoint" />
            <mxPoint x="320" y="110" as="targetPoint" />
            <Array as="points">
              <mxPoint x="210" y="260" />
              <mxPoint x="210" y="210" />
              <mxPoint x="210" y="110" />
            </Array>
          </mxGeometry>
        </mxCell>
        <mxCell id="Yzk0LGv0qohbh3Vv0f0L-66" value="Database" style="strokeWidth=2;html=1;shape=mxgraph.flowchart.database;whiteSpace=wrap;" vertex="1" parent="1">
          <mxGeometry x="470" y="230" width="60" height="60" as="geometry" />
        </mxCell>
        <mxCell id="Yzk0LGv0qohbh3Vv0f0L-69" style="fontStyle=1;strokeColor=#003366;strokeWidth=1;html=1;exitX=1;exitY=0.5;exitDx=0;exitDy=0;exitPerimeter=0;entryX=0;entryY=0.5;entryDx=0;entryDy=0;entryPerimeter=0;" edge="1" parent="1" source="Yzk0LGv0qohbh3Vv0f0L-55" target="Yzk0LGv0qohbh3Vv0f0L-66">
          <mxGeometry relative="1" as="geometry">
            <mxPoint x="280" y="270" as="sourcePoint" />
            <mxPoint x="330" y="80" as="targetPoint" />
          </mxGeometry>
        </mxCell>
        <mxCell id="Yzk0LGv0qohbh3Vv0f0L-70" value="Yes" style="text;strokeColor=none;fillColor=none;align=left;verticalAlign=middle;spacingLeft=4;spacingRight=4;overflow=hidden;points=[[0,0.5],[1,0.5]];portConstraint=eastwest;rotatable=0;" vertex="1" parent="1">
          <mxGeometry x="398" y="231" width="33" height="30" as="geometry" />
        </mxCell>
        <mxCell id="Yzk0LGv0qohbh3Vv0f0L-72" value="No" style="text;strokeColor=none;fillColor=none;align=left;verticalAlign=middle;spacingLeft=4;spacingRight=4;overflow=hidden;points=[[0,0.5],[1,0.5]];portConstraint=eastwest;rotatable=0;" vertex="1" parent="1">
          <mxGeometry x="180" y="188" width="30" height="30" as="geometry" />
        </mxCell>
        <mxCell id="Yzk0LGv0qohbh3Vv0f0L-73" value="Halaman Dashboard" style="rounded=1;whiteSpace=wrap;html=1;absoluteArcSize=1;arcSize=14;strokeWidth=2;" vertex="1" parent="1">
          <mxGeometry x="270" y="360" width="100" height="70" as="geometry" />
        </mxCell>
        <mxCell id="Yzk0LGv0qohbh3Vv0f0L-75" style="fontStyle=1;strokeColor=#003366;strokeWidth=1;html=1;exitX=0.5;exitY=1;exitDx=0;exitDy=0;exitPerimeter=0;entryX=0.5;entryY=0;entryDx=0;entryDy=0;" edge="1" parent="1" source="Yzk0LGv0qohbh3Vv0f0L-66" target="Yzk0LGv0qohbh3Vv0f0L-73">
          <mxGeometry relative="1" as="geometry">
            <mxPoint x="380" y="270" as="sourcePoint" />
            <mxPoint x="480" y="270" as="targetPoint" />
            <Array as="points">
              <mxPoint x="500" y="330" />
              <mxPoint x="320" y="330" />
            </Array>
          </mxGeometry>
        </mxCell>
        <mxCell id="Yzk0LGv0qohbh3Vv0f0L-85" value="" style="verticalLabelPosition=bottom;verticalAlign=top;html=1;shape=process;whiteSpace=wrap;rounded=1;size=0.14;arcSize=6;" vertex="1" parent="1">
          <mxGeometry x="190" y="560" width="100" height="60" as="geometry" />
        </mxCell>
        <mxCell id="Yzk0LGv0qohbh3Vv0f0L-87" value="" style="verticalLabelPosition=bottom;verticalAlign=top;html=1;shape=process;whiteSpace=wrap;rounded=1;size=0.14;arcSize=6;" vertex="1" parent="1">
          <mxGeometry x="350" y="560" width="100" height="60" as="geometry" />
        </mxCell>
        <mxCell id="Yzk0LGv0qohbh3Vv0f0L-88" value="CRUD" style="text;html=1;strokeColor=none;fillColor=none;align=center;verticalAlign=middle;whiteSpace=wrap;rounded=0;" vertex="1" parent="1">
          <mxGeometry x="205" y="575" width="75" height="30" as="geometry" />
        </mxCell>
        <mxCell id="Yzk0LGv0qohbh3Vv0f0L-90" value="CRUD" style="text;html=1;strokeColor=none;fillColor=none;align=center;verticalAlign=middle;whiteSpace=wrap;rounded=0;" vertex="1" parent="1">
          <mxGeometry x="362.5" y="575" width="75" height="30" as="geometry" />
        </mxCell>
        <mxCell id="Yzk0LGv0qohbh3Vv0f0L-91" value="Data Jalan" style="rounded=1;whiteSpace=wrap;html=1;absoluteArcSize=1;arcSize=14;strokeWidth=2;" vertex="1" parent="1">
          <mxGeometry x="190" y="480" width="100" height="50" as="geometry" />
        </mxCell>
        <mxCell id="Yzk0LGv0qohbh3Vv0f0L-92" value="Data Jembatan" style="rounded=1;whiteSpace=wrap;html=1;absoluteArcSize=1;arcSize=14;strokeWidth=2;" vertex="1" parent="1">
          <mxGeometry x="350" y="480" width="100" height="50" as="geometry" />
        </mxCell>
        <mxCell id="Yzk0LGv0qohbh3Vv0f0L-94" style="fontStyle=1;strokeColor=#003366;strokeWidth=1;html=1;exitX=0.5;exitY=1;exitDx=0;exitDy=0;entryX=0.5;entryY=0;entryDx=0;entryDy=0;" edge="1" parent="1" source="Yzk0LGv0qohbh3Vv0f0L-92" target="Yzk0LGv0qohbh3Vv0f0L-87">
          <mxGeometry relative="1" as="geometry">
            <mxPoint x="485" y="560" as="sourcePoint" />
            <mxPoint x="585" y="560" as="targetPoint" />
          </mxGeometry>
        </mxCell>
        <mxCell id="Yzk0LGv0qohbh3Vv0f0L-95" style="fontStyle=1;strokeColor=#003366;strokeWidth=1;html=1;exitX=0.5;exitY=1;exitDx=0;exitDy=0;entryX=0.5;entryY=0;entryDx=0;entryDy=0;" edge="1" parent="1" source="Yzk0LGv0qohbh3Vv0f0L-91" target="Yzk0LGv0qohbh3Vv0f0L-85">
          <mxGeometry relative="1" as="geometry">
            <mxPoint x="410" y="540" as="sourcePoint" />
            <mxPoint x="410" y="600" as="targetPoint" />
          </mxGeometry>
        </mxCell>
        <mxCell id="Yzk0LGv0qohbh3Vv0f0L-96" style="fontStyle=1;strokeColor=#003366;strokeWidth=1;html=1;exitX=0.5;exitY=1;exitDx=0;exitDy=0;entryX=0.5;entryY=0;entryDx=0;entryDy=0;entryPerimeter=0;" edge="1" parent="1" target="Yzk0LGv0qohbh3Vv0f0L-99">
          <mxGeometry relative="1" as="geometry">
            <mxPoint x="240.5" y="620" as="sourcePoint" />
            <mxPoint x="320.5" y="670" as="targetPoint" />
            <Array as="points">
              <mxPoint x="240.5" y="650" />
              <mxPoint x="320.5" y="650" />
            </Array>
          </mxGeometry>
        </mxCell>
        <mxCell id="Yzk0LGv0qohbh3Vv0f0L-97" style="fontStyle=1;strokeColor=#003366;strokeWidth=1;html=1;exitX=0.5;exitY=1;exitDx=0;exitDy=0;entryX=0.5;entryY=0;entryDx=0;entryDy=0;entryPerimeter=0;" edge="1" parent="1" target="Yzk0LGv0qohbh3Vv0f0L-99">
          <mxGeometry relative="1" as="geometry">
            <mxPoint x="399.5" y="620" as="sourcePoint" />
            <mxPoint x="319.5" y="670" as="targetPoint" />
            <Array as="points">
              <mxPoint x="399.5" y="650" />
              <mxPoint x="319.5" y="650" />
            </Array>
          </mxGeometry>
        </mxCell>
        <mxCell id="Yzk0LGv0qohbh3Vv0f0L-99" value="End" style="strokeWidth=2;html=1;shape=mxgraph.flowchart.terminator;whiteSpace=wrap;" vertex="1" parent="1">
          <mxGeometry x="270" y="680" width="100" height="30" as="geometry" />
        </mxCell>
        <mxCell id="Yzk0LGv0qohbh3Vv0f0L-100" value="CRUD" style="shape=mxgraph.flowchart.terminator;strokeWidth=2;gradientColor=none;gradientDirection=north;fontStyle=0;html=1;" vertex="1" parent="1">
          <mxGeometry x="830" y="60" width="100" height="30" as="geometry" />
        </mxCell>
        <mxCell id="Yzk0LGv0qohbh3Vv0f0L-101" value="" style="group" vertex="1" connectable="0" parent="1">
          <mxGeometry x="240" y="460" width="160" as="geometry" />
        </mxCell>
        <mxCell id="Yzk0LGv0qohbh3Vv0f0L-83" style="fontStyle=1;strokeColor=#003366;strokeWidth=1;html=1;exitX=0.5;exitY=1;exitDx=0;exitDy=0;entryX=0.5;entryY=0;entryDx=0;entryDy=0;" edge="1" parent="Yzk0LGv0qohbh3Vv0f0L-101" source="Yzk0LGv0qohbh3Vv0f0L-73" target="Yzk0LGv0qohbh3Vv0f0L-92">
          <mxGeometry relative="1" as="geometry">
            <mxPoint x="90" y="-20" as="sourcePoint" />
            <mxPoint x="160" y="40" as="targetPoint" />
            <Array as="points">
              <mxPoint x="80" />
              <mxPoint x="160" />
            </Array>
          </mxGeometry>
        </mxCell>
        <mxCell id="Yzk0LGv0qohbh3Vv0f0L-84" style="fontStyle=1;strokeColor=#003366;strokeWidth=1;html=1;exitX=0.5;exitY=1;exitDx=0;exitDy=0;entryX=0.5;entryY=0;entryDx=0;entryDy=0;" edge="1" parent="Yzk0LGv0qohbh3Vv0f0L-101" source="Yzk0LGv0qohbh3Vv0f0L-73" target="Yzk0LGv0qohbh3Vv0f0L-91">
          <mxGeometry relative="1" as="geometry">
            <mxPoint x="80" y="-30" as="sourcePoint" />
            <mxPoint y="40" as="targetPoint" />
            <Array as="points">
              <mxPoint x="80" />
              <mxPoint />
            </Array>
          </mxGeometry>
        </mxCell>
        <mxCell id="Yzk0LGv0qohbh3Vv0f0L-103" style="fontStyle=1;strokeColor=#003366;strokeWidth=1;html=1;exitX=0.5;exitY=1;exitDx=0;exitDy=0;exitPerimeter=0;entryX=0.5;entryY=0;entryDx=0;entryDy=0;" edge="1" parent="1" source="Yzk0LGv0qohbh3Vv0f0L-100" target="Yzk0LGv0qohbh3Vv0f0L-114">
          <mxGeometry relative="1" as="geometry">
            <mxPoint x="890" y="120" as="sourcePoint" />
            <mxPoint x="940" y="150" as="targetPoint" />
            <Array as="points">
              <mxPoint x="880" y="120" />
              <mxPoint x="940" y="120" />
            </Array>
          </mxGeometry>
        </mxCell>
        <mxCell id="Yzk0LGv0qohbh3Vv0f0L-104" style="fontStyle=1;strokeColor=#003366;strokeWidth=1;html=1;exitX=0.5;exitY=1;exitDx=0;exitDy=0;exitPerimeter=0;entryX=0.5;entryY=0;entryDx=0;entryDy=0;" edge="1" parent="1" source="Yzk0LGv0qohbh3Vv0f0L-100" target="Yzk0LGv0qohbh3Vv0f0L-111">
          <mxGeometry relative="1" as="geometry">
            <mxPoint x="860" y="118" as="sourcePoint" />
            <mxPoint x="820" y="150" as="targetPoint" />
            <Array as="points">
              <mxPoint x="880" y="120" />
              <mxPoint x="820" y="120" />
            </Array>
          </mxGeometry>
        </mxCell>
        <mxCell id="Yzk0LGv0qohbh3Vv0f0L-105" style="fontStyle=1;strokeColor=#003366;strokeWidth=1;html=1;exitX=0.5;exitY=1;exitDx=0;exitDy=0;exitPerimeter=0;entryX=0.5;entryY=0;entryDx=0;entryDy=0;" edge="1" parent="1" source="Yzk0LGv0qohbh3Vv0f0L-100" target="Yzk0LGv0qohbh3Vv0f0L-107">
          <mxGeometry relative="1" as="geometry">
            <mxPoint x="840" y="100" as="sourcePoint" />
            <mxPoint x="720" y="150" as="targetPoint" />
            <Array as="points">
              <mxPoint x="880" y="120" />
              <mxPoint x="720" y="120" />
            </Array>
          </mxGeometry>
        </mxCell>
        <mxCell id="Yzk0LGv0qohbh3Vv0f0L-106" style="fontStyle=1;strokeColor=#003366;strokeWidth=1;html=1;entryX=0.5;entryY=0;entryDx=0;entryDy=0;" edge="1" parent="1" source="Yzk0LGv0qohbh3Vv0f0L-100" target="Yzk0LGv0qohbh3Vv0f0L-117">
          <mxGeometry relative="1" as="geometry">
            <mxPoint x="890" y="100" as="sourcePoint" />
            <mxPoint x="1040" y="150" as="targetPoint" />
            <Array as="points">
              <mxPoint x="880" y="120" />
              <mxPoint x="1040" y="120" />
            </Array>
          </mxGeometry>
        </mxCell>
        <mxCell id="Yzk0LGv0qohbh3Vv0f0L-109" value="" style="group" vertex="1" connectable="0" parent="1">
          <mxGeometry x="680" y="150" width="80" height="50" as="geometry" />
        </mxCell>
        <mxCell id="Yzk0LGv0qohbh3Vv0f0L-107" value="" style="verticalLabelPosition=bottom;verticalAlign=top;html=1;shape=process;whiteSpace=wrap;rounded=1;size=0.14;arcSize=6;" vertex="1" parent="Yzk0LGv0qohbh3Vv0f0L-109">
          <mxGeometry width="80" height="50" as="geometry" />
        </mxCell>
        <mxCell id="Yzk0LGv0qohbh3Vv0f0L-108" value="CREATE" style="text;html=1;strokeColor=none;fillColor=none;align=center;verticalAlign=middle;whiteSpace=wrap;rounded=0;" vertex="1" parent="Yzk0LGv0qohbh3Vv0f0L-109">
          <mxGeometry x="12" y="12.5" width="60" height="25" as="geometry" />
        </mxCell>
        <mxCell id="Yzk0LGv0qohbh3Vv0f0L-110" value="" style="group" vertex="1" connectable="0" parent="1">
          <mxGeometry x="780" y="150" width="80" height="50" as="geometry" />
        </mxCell>
        <mxCell id="Yzk0LGv0qohbh3Vv0f0L-111" value="" style="verticalLabelPosition=bottom;verticalAlign=top;html=1;shape=process;whiteSpace=wrap;rounded=1;size=0.14;arcSize=6;" vertex="1" parent="Yzk0LGv0qohbh3Vv0f0L-110">
          <mxGeometry width="80" height="50" as="geometry" />
        </mxCell>
        <mxCell id="Yzk0LGv0qohbh3Vv0f0L-112" value="&lt;font style=&quot;font-size: 11px;&quot;&gt;RETRIEVE&lt;/font&gt;" style="text;html=1;strokeColor=none;fillColor=none;align=center;verticalAlign=middle;whiteSpace=wrap;rounded=0;" vertex="1" parent="Yzk0LGv0qohbh3Vv0f0L-110">
          <mxGeometry x="11" y="12.5" width="60" height="25" as="geometry" />
        </mxCell>
        <mxCell id="Yzk0LGv0qohbh3Vv0f0L-113" value="" style="group" vertex="1" connectable="0" parent="1">
          <mxGeometry x="900" y="150" width="80" height="50" as="geometry" />
        </mxCell>
        <mxCell id="Yzk0LGv0qohbh3Vv0f0L-114" value="" style="verticalLabelPosition=bottom;verticalAlign=top;html=1;shape=process;whiteSpace=wrap;rounded=1;size=0.14;arcSize=6;" vertex="1" parent="Yzk0LGv0qohbh3Vv0f0L-113">
          <mxGeometry width="80" height="50" as="geometry" />
        </mxCell>
        <mxCell id="Yzk0LGv0qohbh3Vv0f0L-115" value="UPDATE" style="text;html=1;strokeColor=none;fillColor=none;align=center;verticalAlign=middle;whiteSpace=wrap;rounded=0;" vertex="1" parent="Yzk0LGv0qohbh3Vv0f0L-113">
          <mxGeometry x="10" y="12.5" width="60" height="25" as="geometry" />
        </mxCell>
        <mxCell id="Yzk0LGv0qohbh3Vv0f0L-116" value="" style="group" vertex="1" connectable="0" parent="1">
          <mxGeometry x="1000" y="150" width="80" height="50" as="geometry" />
        </mxCell>
        <mxCell id="Yzk0LGv0qohbh3Vv0f0L-117" value="" style="verticalLabelPosition=bottom;verticalAlign=top;html=1;shape=process;whiteSpace=wrap;rounded=1;size=0.14;arcSize=6;" vertex="1" parent="Yzk0LGv0qohbh3Vv0f0L-116">
          <mxGeometry width="80" height="50" as="geometry" />
        </mxCell>
        <mxCell id="Yzk0LGv0qohbh3Vv0f0L-118" value="DELETE" style="text;html=1;strokeColor=none;fillColor=none;align=center;verticalAlign=middle;whiteSpace=wrap;rounded=0;" vertex="1" parent="Yzk0LGv0qohbh3Vv0f0L-116">
          <mxGeometry x="11" y="12.5" width="60" height="25" as="geometry" />
        </mxCell>
        <mxCell id="Yzk0LGv0qohbh3Vv0f0L-122" style="fontStyle=1;strokeColor=#003366;strokeWidth=1;html=1;exitX=0.5;exitY=1;exitDx=0;exitDy=0;exitPerimeter=0;entryX=0.5;entryY=0;entryDx=0;entryDy=0;entryPerimeter=0;" edge="1" parent="1" target="Yzk0LGv0qohbh3Vv0f0L-124">
          <mxGeometry relative="1" as="geometry">
            <mxPoint x="820" y="200" as="sourcePoint" />
            <mxPoint x="880" y="260" as="targetPoint" />
            <Array as="points">
              <mxPoint x="820" y="230" />
              <mxPoint x="880" y="230" />
            </Array>
          </mxGeometry>
        </mxCell>
        <mxCell id="Yzk0LGv0qohbh3Vv0f0L-123" style="fontStyle=1;strokeColor=#003366;strokeWidth=1;html=1;entryX=0.5;entryY=0;entryDx=0;entryDy=0;entryPerimeter=0;" edge="1" parent="1" target="Yzk0LGv0qohbh3Vv0f0L-124">
          <mxGeometry relative="1" as="geometry">
            <mxPoint x="720" y="200" as="sourcePoint" />
            <mxPoint x="880" y="260" as="targetPoint" />
            <Array as="points">
              <mxPoint x="720" y="230" />
              <mxPoint x="880" y="230" />
            </Array>
          </mxGeometry>
        </mxCell>
        <mxCell id="Yzk0LGv0qohbh3Vv0f0L-124" value="End" style="strokeWidth=2;html=1;shape=mxgraph.flowchart.terminator;whiteSpace=wrap;" vertex="1" parent="1">
          <mxGeometry x="830" y="261" width="100" height="30" as="geometry" />
        </mxCell>
        <mxCell id="Yzk0LGv0qohbh3Vv0f0L-125" style="fontStyle=1;strokeColor=#003366;strokeWidth=1;html=1;entryX=0.5;entryY=0;entryDx=0;entryDy=0;exitX=0.5;exitY=1;exitDx=0;exitDy=0;" edge="1" parent="1" source="Yzk0LGv0qohbh3Vv0f0L-114">
          <mxGeometry relative="1" as="geometry">
            <mxPoint x="990" y="220" as="sourcePoint" />
            <mxPoint x="880" y="260" as="targetPoint" />
            <Array as="points">
              <mxPoint x="940" y="230" />
              <mxPoint x="880" y="230" />
            </Array>
          </mxGeometry>
        </mxCell>
        <mxCell id="Yzk0LGv0qohbh3Vv0f0L-126" style="fontStyle=1;strokeColor=#003366;strokeWidth=1;html=1;exitX=0.5;exitY=1;exitDx=0;exitDy=0;entryX=0.5;entryY=0;entryDx=0;entryDy=0;" edge="1" parent="1" source="Yzk0LGv0qohbh3Vv0f0L-117">
          <mxGeometry relative="1" as="geometry">
            <mxPoint x="1040" y="200" as="sourcePoint" />
            <mxPoint x="880" y="260" as="targetPoint" />
            <Array as="points">
              <mxPoint x="1040" y="230" />
              <mxPoint x="880" y="230" />
            </Array>
          </mxGeometry>
        </mxCell>
        <mxCell id="Yzk0LGv0qohbh3Vv0f0L-127" value="CREATE" style="shape=mxgraph.flowchart.terminator;strokeWidth=2;gradientColor=none;gradientDirection=north;fontStyle=0;html=1;" vertex="1" parent="1">
          <mxGeometry x="670" y="360" width="100" height="30" as="geometry" />
        </mxCell>
        <mxCell id="Yzk0LGv0qohbh3Vv0f0L-128" style="fontStyle=1;strokeColor=#003366;strokeWidth=1;html=1;exitX=0.5;exitY=1;exitDx=0;exitDy=0;exitPerimeter=0;entryX=0.5;entryY=0;entryDx=0;entryDy=0;" edge="1" parent="1" source="Yzk0LGv0qohbh3Vv0f0L-127" target="Yzk0LGv0qohbh3Vv0f0L-129">
          <mxGeometry relative="1" as="geometry">
            <mxPoint x="709.38" y="410" as="sourcePoint" />
            <mxPoint x="720" y="420" as="targetPoint" />
          </mxGeometry>
        </mxCell>
        <mxCell id="Yzk0LGv0qohbh3Vv0f0L-129" value="Data" style="shape=parallelogram;html=1;strokeWidth=2;perimeter=parallelogramPerimeter;whiteSpace=wrap;rounded=1;arcSize=12;size=0.23;fontSize=11;" vertex="1" parent="1">
          <mxGeometry x="670" y="420" width="100" height="50" as="geometry" />
        </mxCell>
        <mxCell id="Yzk0LGv0qohbh3Vv0f0L-130" value="SAVE" style="rounded=1;whiteSpace=wrap;html=1;absoluteArcSize=1;arcSize=14;strokeWidth=2;fontSize=11;" vertex="1" parent="1">
          <mxGeometry x="670" y="500" width="100" height="40" as="geometry" />
        </mxCell>
        <mxCell id="Yzk0LGv0qohbh3Vv0f0L-131" style="fontStyle=1;strokeColor=#003366;strokeWidth=1;html=1;exitX=0.5;exitY=1;exitDx=0;exitDy=0;entryX=0.5;entryY=0;entryDx=0;entryDy=0;" edge="1" parent="1" source="Yzk0LGv0qohbh3Vv0f0L-129" target="Yzk0LGv0qohbh3Vv0f0L-130">
          <mxGeometry relative="1" as="geometry">
            <mxPoint x="730" y="399.9999999999998" as="sourcePoint" />
            <mxPoint x="730" y="429.9999999999998" as="targetPoint" />
          </mxGeometry>
        </mxCell>
        <mxCell id="Yzk0LGv0qohbh3Vv0f0L-132" value="Database" style="strokeWidth=2;html=1;shape=mxgraph.flowchart.database;whiteSpace=wrap;" vertex="1" parent="1">
          <mxGeometry x="690" y="570" width="60" height="60" as="geometry" />
        </mxCell>
        <mxCell id="Yzk0LGv0qohbh3Vv0f0L-133" style="fontStyle=1;strokeColor=#003366;strokeWidth=1;html=1;exitX=0.5;exitY=1;exitDx=0;exitDy=0;entryX=0.5;entryY=0;entryDx=0;entryDy=0;entryPerimeter=0;" edge="1" parent="1" source="Yzk0LGv0qohbh3Vv0f0L-130" target="Yzk0LGv0qohbh3Vv0f0L-132">
          <mxGeometry relative="1" as="geometry">
            <mxPoint x="730" y="399.9999999999998" as="sourcePoint" />
            <mxPoint x="730" y="429.9999999999998" as="targetPoint" />
          </mxGeometry>
        </mxCell>
        <mxCell id="Yzk0LGv0qohbh3Vv0f0L-134" value="Message &quot;Data Created&quot;" style="rounded=1;whiteSpace=wrap;html=1;absoluteArcSize=1;arcSize=14;strokeWidth=2;fontSize=11;" vertex="1" parent="1">
          <mxGeometry x="670" y="660" width="100" height="40" as="geometry" />
        </mxCell>
        <mxCell id="Yzk0LGv0qohbh3Vv0f0L-135" style="fontStyle=1;strokeColor=#003366;strokeWidth=1;html=1;exitX=0.5;exitY=1;exitDx=0;exitDy=0;entryX=0.5;entryY=0;entryDx=0;entryDy=0;exitPerimeter=0;" edge="1" parent="1" source="Yzk0LGv0qohbh3Vv0f0L-132" target="Yzk0LGv0qohbh3Vv0f0L-134">
          <mxGeometry relative="1" as="geometry">
            <mxPoint x="730" y="545.0000000000002" as="sourcePoint" />
            <mxPoint x="730" y="580.0000000000002" as="targetPoint" />
          </mxGeometry>
        </mxCell>
        <mxCell id="Yzk0LGv0qohbh3Vv0f0L-136" value="End" style="strokeWidth=2;html=1;shape=mxgraph.flowchart.terminator;whiteSpace=wrap;" vertex="1" parent="1">
          <mxGeometry x="670" y="730" width="100" height="30" as="geometry" />
        </mxCell>
        <mxCell id="Yzk0LGv0qohbh3Vv0f0L-137" style="fontStyle=1;strokeColor=#003366;strokeWidth=1;html=1;exitX=0.5;exitY=1;exitDx=0;exitDy=0;entryX=0.5;entryY=0;entryDx=0;entryDy=0;entryPerimeter=0;" edge="1" parent="1" source="Yzk0LGv0qohbh3Vv0f0L-134" target="Yzk0LGv0qohbh3Vv0f0L-136">
          <mxGeometry relative="1" as="geometry">
            <mxPoint x="730" y="635" as="sourcePoint" />
            <mxPoint x="730" y="670" as="targetPoint" />
          </mxGeometry>
        </mxCell>
        <mxCell id="Yzk0LGv0qohbh3Vv0f0L-138" value="RETRIEVE" style="shape=mxgraph.flowchart.terminator;strokeWidth=2;gradientColor=none;gradientDirection=north;fontStyle=0;html=1;" vertex="1" parent="1">
          <mxGeometry x="840" y="360" width="100" height="30" as="geometry" />
        </mxCell>
        <mxCell id="Yzk0LGv0qohbh3Vv0f0L-139" style="fontStyle=1;strokeColor=#003366;strokeWidth=1;html=1;exitX=0.5;exitY=1;exitDx=0;exitDy=0;exitPerimeter=0;entryX=0.5;entryY=0;entryDx=0;entryDy=0;" edge="1" parent="1" source="Yzk0LGv0qohbh3Vv0f0L-138" target="Yzk0LGv0qohbh3Vv0f0L-140">
          <mxGeometry relative="1" as="geometry">
            <mxPoint x="879.38" y="410" as="sourcePoint" />
            <mxPoint x="890" y="420" as="targetPoint" />
          </mxGeometry>
        </mxCell>
        <mxCell id="Yzk0LGv0qohbh3Vv0f0L-140" value="ID Data" style="shape=parallelogram;html=1;strokeWidth=2;perimeter=parallelogramPerimeter;whiteSpace=wrap;rounded=1;arcSize=12;size=0.23;fontSize=11;" vertex="1" parent="1">
          <mxGeometry x="840" y="420" width="100" height="50" as="geometry" />
        </mxCell>
        <mxCell id="Yzk0LGv0qohbh3Vv0f0L-141" value="Search ID DATA" style="rounded=1;whiteSpace=wrap;html=1;absoluteArcSize=1;arcSize=14;strokeWidth=2;fontSize=11;" vertex="1" parent="1">
          <mxGeometry x="840" y="500" width="100" height="40" as="geometry" />
        </mxCell>
        <mxCell id="Yzk0LGv0qohbh3Vv0f0L-142" style="fontStyle=1;strokeColor=#003366;strokeWidth=1;html=1;exitX=0.5;exitY=1;exitDx=0;exitDy=0;entryX=0.5;entryY=0;entryDx=0;entryDy=0;" edge="1" parent="1" source="Yzk0LGv0qohbh3Vv0f0L-140" target="Yzk0LGv0qohbh3Vv0f0L-141">
          <mxGeometry relative="1" as="geometry">
            <mxPoint x="900" y="399.9999999999998" as="sourcePoint" />
            <mxPoint x="900" y="429.9999999999998" as="targetPoint" />
          </mxGeometry>
        </mxCell>
        <mxCell id="Yzk0LGv0qohbh3Vv0f0L-143" value="Database" style="strokeWidth=2;html=1;shape=mxgraph.flowchart.database;whiteSpace=wrap;" vertex="1" parent="1">
          <mxGeometry x="860" y="570" width="60" height="60" as="geometry" />
        </mxCell>
        <mxCell id="Yzk0LGv0qohbh3Vv0f0L-144" style="fontStyle=1;strokeColor=#003366;strokeWidth=1;html=1;exitX=0.5;exitY=1;exitDx=0;exitDy=0;entryX=0.5;entryY=0;entryDx=0;entryDy=0;entryPerimeter=0;" edge="1" parent="1" source="Yzk0LGv0qohbh3Vv0f0L-141" target="Yzk0LGv0qohbh3Vv0f0L-143">
          <mxGeometry relative="1" as="geometry">
            <mxPoint x="900" y="399.9999999999998" as="sourcePoint" />
            <mxPoint x="900" y="429.9999999999998" as="targetPoint" />
          </mxGeometry>
        </mxCell>
        <mxCell id="Yzk0LGv0qohbh3Vv0f0L-145" value="Show Data" style="rounded=1;whiteSpace=wrap;html=1;absoluteArcSize=1;arcSize=14;strokeWidth=2;fontSize=11;" vertex="1" parent="1">
          <mxGeometry x="840" y="660" width="100" height="40" as="geometry" />
        </mxCell>
        <mxCell id="Yzk0LGv0qohbh3Vv0f0L-146" style="fontStyle=1;strokeColor=#003366;strokeWidth=1;html=1;exitX=0.5;exitY=1;exitDx=0;exitDy=0;entryX=0.5;entryY=0;entryDx=0;entryDy=0;exitPerimeter=0;" edge="1" parent="1" source="Yzk0LGv0qohbh3Vv0f0L-143" target="Yzk0LGv0qohbh3Vv0f0L-145">
          <mxGeometry relative="1" as="geometry">
            <mxPoint x="900" y="545.0000000000002" as="sourcePoint" />
            <mxPoint x="900" y="580.0000000000002" as="targetPoint" />
          </mxGeometry>
        </mxCell>
        <mxCell id="Yzk0LGv0qohbh3Vv0f0L-147" value="End" style="strokeWidth=2;html=1;shape=mxgraph.flowchart.terminator;whiteSpace=wrap;" vertex="1" parent="1">
          <mxGeometry x="840" y="730" width="100" height="30" as="geometry" />
        </mxCell>
        <mxCell id="Yzk0LGv0qohbh3Vv0f0L-148" style="fontStyle=1;strokeColor=#003366;strokeWidth=1;html=1;exitX=0.5;exitY=1;exitDx=0;exitDy=0;entryX=0.5;entryY=0;entryDx=0;entryDy=0;entryPerimeter=0;" edge="1" parent="1" source="Yzk0LGv0qohbh3Vv0f0L-145" target="Yzk0LGv0qohbh3Vv0f0L-147">
          <mxGeometry relative="1" as="geometry">
            <mxPoint x="900" y="635" as="sourcePoint" />
            <mxPoint x="900" y="670" as="targetPoint" />
          </mxGeometry>
        </mxCell>
        <mxCell id="Yzk0LGv0qohbh3Vv0f0L-149" value="UPDATE" style="shape=mxgraph.flowchart.terminator;strokeWidth=2;gradientColor=none;gradientDirection=north;fontStyle=0;html=1;" vertex="1" parent="1">
          <mxGeometry x="990" y="360" width="100" height="30" as="geometry" />
        </mxCell>
        <mxCell id="Yzk0LGv0qohbh3Vv0f0L-150" style="fontStyle=1;strokeColor=#003366;strokeWidth=1;html=1;exitX=0.5;exitY=1;exitDx=0;exitDy=0;exitPerimeter=0;entryX=0.5;entryY=0;entryDx=0;entryDy=0;" edge="1" parent="1" source="Yzk0LGv0qohbh3Vv0f0L-149" target="Yzk0LGv0qohbh3Vv0f0L-151">
          <mxGeometry relative="1" as="geometry">
            <mxPoint x="1029.38" y="410" as="sourcePoint" />
            <mxPoint x="1040" y="420" as="targetPoint" />
          </mxGeometry>
        </mxCell>
        <mxCell id="Yzk0LGv0qohbh3Vv0f0L-151" value="Edit Data" style="shape=parallelogram;html=1;strokeWidth=2;perimeter=parallelogramPerimeter;whiteSpace=wrap;rounded=1;arcSize=12;size=0.23;fontSize=11;" vertex="1" parent="1">
          <mxGeometry x="990" y="420" width="100" height="50" as="geometry" />
        </mxCell>
        <mxCell id="Yzk0LGv0qohbh3Vv0f0L-152" value="SAVE" style="rounded=1;whiteSpace=wrap;html=1;absoluteArcSize=1;arcSize=14;strokeWidth=2;fontSize=11;" vertex="1" parent="1">
          <mxGeometry x="990" y="500" width="100" height="40" as="geometry" />
        </mxCell>
        <mxCell id="Yzk0LGv0qohbh3Vv0f0L-153" style="fontStyle=1;strokeColor=#003366;strokeWidth=1;html=1;exitX=0.5;exitY=1;exitDx=0;exitDy=0;entryX=0.5;entryY=0;entryDx=0;entryDy=0;" edge="1" parent="1" source="Yzk0LGv0qohbh3Vv0f0L-151" target="Yzk0LGv0qohbh3Vv0f0L-152">
          <mxGeometry relative="1" as="geometry">
            <mxPoint x="1050" y="399.9999999999998" as="sourcePoint" />
            <mxPoint x="1050" y="429.9999999999998" as="targetPoint" />
          </mxGeometry>
        </mxCell>
        <mxCell id="Yzk0LGv0qohbh3Vv0f0L-154" value="Database" style="strokeWidth=2;html=1;shape=mxgraph.flowchart.database;whiteSpace=wrap;" vertex="1" parent="1">
          <mxGeometry x="1010" y="570" width="60" height="60" as="geometry" />
        </mxCell>
        <mxCell id="Yzk0LGv0qohbh3Vv0f0L-155" style="fontStyle=1;strokeColor=#003366;strokeWidth=1;html=1;exitX=0.5;exitY=1;exitDx=0;exitDy=0;entryX=0.5;entryY=0;entryDx=0;entryDy=0;entryPerimeter=0;" edge="1" parent="1" source="Yzk0LGv0qohbh3Vv0f0L-152" target="Yzk0LGv0qohbh3Vv0f0L-154">
          <mxGeometry relative="1" as="geometry">
            <mxPoint x="1050" y="399.9999999999998" as="sourcePoint" />
            <mxPoint x="1050" y="429.9999999999998" as="targetPoint" />
          </mxGeometry>
        </mxCell>
        <mxCell id="Yzk0LGv0qohbh3Vv0f0L-156" value="Message &quot;Data Updated&quot;" style="rounded=1;whiteSpace=wrap;html=1;absoluteArcSize=1;arcSize=14;strokeWidth=2;fontSize=11;" vertex="1" parent="1">
          <mxGeometry x="990" y="660" width="100" height="40" as="geometry" />
        </mxCell>
        <mxCell id="Yzk0LGv0qohbh3Vv0f0L-157" style="fontStyle=1;strokeColor=#003366;strokeWidth=1;html=1;exitX=0.5;exitY=1;exitDx=0;exitDy=0;entryX=0.5;entryY=0;entryDx=0;entryDy=0;exitPerimeter=0;" edge="1" parent="1" source="Yzk0LGv0qohbh3Vv0f0L-154" target="Yzk0LGv0qohbh3Vv0f0L-156">
          <mxGeometry relative="1" as="geometry">
            <mxPoint x="1050" y="545.0000000000002" as="sourcePoint" />
            <mxPoint x="1050" y="580.0000000000002" as="targetPoint" />
          </mxGeometry>
        </mxCell>
        <mxCell id="Yzk0LGv0qohbh3Vv0f0L-158" value="End" style="strokeWidth=2;html=1;shape=mxgraph.flowchart.terminator;whiteSpace=wrap;" vertex="1" parent="1">
          <mxGeometry x="990" y="730" width="100" height="30" as="geometry" />
        </mxCell>
        <mxCell id="Yzk0LGv0qohbh3Vv0f0L-159" style="fontStyle=1;strokeColor=#003366;strokeWidth=1;html=1;exitX=0.5;exitY=1;exitDx=0;exitDy=0;entryX=0.5;entryY=0;entryDx=0;entryDy=0;entryPerimeter=0;" edge="1" parent="1" source="Yzk0LGv0qohbh3Vv0f0L-156" target="Yzk0LGv0qohbh3Vv0f0L-158">
          <mxGeometry relative="1" as="geometry">
            <mxPoint x="1050" y="635" as="sourcePoint" />
            <mxPoint x="1050" y="670" as="targetPoint" />
          </mxGeometry>
        </mxCell>
        <mxCell id="Yzk0LGv0qohbh3Vv0f0L-160" value="DELETE" style="shape=mxgraph.flowchart.terminator;strokeWidth=2;gradientColor=none;gradientDirection=north;fontStyle=0;html=1;" vertex="1" parent="1">
          <mxGeometry x="1150" y="360" width="100" height="30" as="geometry" />
        </mxCell>
        <mxCell id="Yzk0LGv0qohbh3Vv0f0L-161" style="fontStyle=1;strokeColor=#003366;strokeWidth=1;html=1;exitX=0.5;exitY=1;exitDx=0;exitDy=0;exitPerimeter=0;entryX=0.5;entryY=0;entryDx=0;entryDy=0;" edge="1" parent="1" source="Yzk0LGv0qohbh3Vv0f0L-160" target="Yzk0LGv0qohbh3Vv0f0L-162">
          <mxGeometry relative="1" as="geometry">
            <mxPoint x="1189.38" y="410" as="sourcePoint" />
            <mxPoint x="1200" y="420" as="targetPoint" />
          </mxGeometry>
        </mxCell>
        <mxCell id="Yzk0LGv0qohbh3Vv0f0L-162" value="ID Data" style="shape=parallelogram;html=1;strokeWidth=2;perimeter=parallelogramPerimeter;whiteSpace=wrap;rounded=1;arcSize=12;size=0.23;fontSize=11;" vertex="1" parent="1">
          <mxGeometry x="1150" y="420" width="100" height="50" as="geometry" />
        </mxCell>
        <mxCell id="Yzk0LGv0qohbh3Vv0f0L-163" value="DELETE" style="rounded=1;whiteSpace=wrap;html=1;absoluteArcSize=1;arcSize=14;strokeWidth=2;fontSize=11;" vertex="1" parent="1">
          <mxGeometry x="1150" y="500" width="100" height="40" as="geometry" />
        </mxCell>
        <mxCell id="Yzk0LGv0qohbh3Vv0f0L-164" style="fontStyle=1;strokeColor=#003366;strokeWidth=1;html=1;exitX=0.5;exitY=1;exitDx=0;exitDy=0;entryX=0.5;entryY=0;entryDx=0;entryDy=0;" edge="1" parent="1" source="Yzk0LGv0qohbh3Vv0f0L-162" target="Yzk0LGv0qohbh3Vv0f0L-163">
          <mxGeometry relative="1" as="geometry">
            <mxPoint x="1210" y="399.9999999999998" as="sourcePoint" />
            <mxPoint x="1210" y="429.9999999999998" as="targetPoint" />
          </mxGeometry>
        </mxCell>
        <mxCell id="Yzk0LGv0qohbh3Vv0f0L-165" value="Database" style="strokeWidth=2;html=1;shape=mxgraph.flowchart.database;whiteSpace=wrap;" vertex="1" parent="1">
          <mxGeometry x="1170" y="570" width="60" height="60" as="geometry" />
        </mxCell>
        <mxCell id="Yzk0LGv0qohbh3Vv0f0L-166" style="fontStyle=1;strokeColor=#003366;strokeWidth=1;html=1;exitX=0.5;exitY=1;exitDx=0;exitDy=0;entryX=0.5;entryY=0;entryDx=0;entryDy=0;entryPerimeter=0;" edge="1" parent="1" source="Yzk0LGv0qohbh3Vv0f0L-163" target="Yzk0LGv0qohbh3Vv0f0L-165">
          <mxGeometry relative="1" as="geometry">
            <mxPoint x="1210" y="399.9999999999998" as="sourcePoint" />
            <mxPoint x="1210" y="429.9999999999998" as="targetPoint" />
          </mxGeometry>
        </mxCell>
        <mxCell id="Yzk0LGv0qohbh3Vv0f0L-167" value="Message &quot;Data Deleted&quot;" style="rounded=1;whiteSpace=wrap;html=1;absoluteArcSize=1;arcSize=14;strokeWidth=2;fontSize=11;" vertex="1" parent="1">
          <mxGeometry x="1150" y="660" width="100" height="40" as="geometry" />
        </mxCell>
        <mxCell id="Yzk0LGv0qohbh3Vv0f0L-168" style="fontStyle=1;strokeColor=#003366;strokeWidth=1;html=1;exitX=0.5;exitY=1;exitDx=0;exitDy=0;entryX=0.5;entryY=0;entryDx=0;entryDy=0;exitPerimeter=0;" edge="1" parent="1" source="Yzk0LGv0qohbh3Vv0f0L-165" target="Yzk0LGv0qohbh3Vv0f0L-167">
          <mxGeometry relative="1" as="geometry">
            <mxPoint x="1210" y="545.0000000000002" as="sourcePoint" />
            <mxPoint x="1210" y="580.0000000000002" as="targetPoint" />
          </mxGeometry>
        </mxCell>
        <mxCell id="Yzk0LGv0qohbh3Vv0f0L-169" value="End" style="strokeWidth=2;html=1;shape=mxgraph.flowchart.terminator;whiteSpace=wrap;" vertex="1" parent="1">
          <mxGeometry x="1150" y="730" width="100" height="30" as="geometry" />
        </mxCell>
        <mxCell id="Yzk0LGv0qohbh3Vv0f0L-170" style="fontStyle=1;strokeColor=#003366;strokeWidth=1;html=1;exitX=0.5;exitY=1;exitDx=0;exitDy=0;entryX=0.5;entryY=0;entryDx=0;entryDy=0;entryPerimeter=0;" edge="1" parent="1" source="Yzk0LGv0qohbh3Vv0f0L-167" target="Yzk0LGv0qohbh3Vv0f0L-169">
          <mxGeometry relative="1" as="geometry">
            <mxPoint x="1210" y="635" as="sourcePoint" />
            <mxPoint x="1210" y="670" as="targetPoint" />
          </mxGeometry>
        </mxCell>
      </root>
    </mxGraphModel>
  </diagram>
</mxfile>
